0
SECTION
2
HEADER
9
$EXTMIN
10
474495.399
20
4394400.446
30
1641.947
9
$EXTMAX
10
482772.041
20
4399599.938
30
2313.764
0
ENDSEC
0
SECTION
2
TABLES
0
TABLE
2
LAYER
70
2
0
LAYER
2
SURVEY_POINTS
70
0
62
7
6
CONTINUOUS
0
LAYER
2
CONTOURS
70
0
62
3
6
CONTINUOUS
0
ENDTAB
0
ENDSEC
0
SECTION
2
ENTITIES
0
POINT
8
SURVEY_POINTS
10
474812.548
20
4396771.501
30
2229.900
0
TEXT
8
SURVEY_POINTS
10
474814.548
20
4396773.501
30
2229.900
40
5.0
1
1
0
POINT
8
SURVEY_POINTS
10
475060.089
20
4396818.861
30
2236.592
0
TEXT
8
SURVEY_POINTS
10
475062.089
20
4396820.861
30
2236.592
40
5.0
1
2
0
POINT
8
SURVEY_POINTS
10
475332.824
20
4396803.924
30
2241.902
0
TEXT
8
SURVEY_POINTS
10
475334.824
20
4396805.924
30
2241.902
40
5.0
1
3
0
POINT
8
SURVEY_POINTS
10
475630.939
20
4396817.306
30
2261.212
0
TEXT
8
SURVEY_POINTS
10
475632.939
20
4396819.306
30
2261.212
40
5.0
1
4
0
POINT
8
SURVEY_POINTS
10
475932.757
20
4396808.947
30
2270.364
0
TEXT
8
SURVEY_POINTS
10
475934.757
20
4396810.947
30
2270.364
40
5.0
1
5
0
POINT
8
SURVEY_POINTS
10
476248.293
20
4396790.491
30
2277.423
0
TEXT
8
SURVEY_POINTS
10
476250.293
20
4396792.491
30
2277.423
40
5.0
1
6
0
POINT
8
SURVEY_POINTS
10
476478.993
20
4396835.538
30
2283.537
0
TEXT
8
SURVEY_POINTS
10
476480.993
20
4396837.538
30
2283.537
40
5.0
1
7
0
POINT
8
SURVEY_POINTS
10
476784.193
20
4396795.559
30
2274.266
0
TEXT
8
SURVEY_POINTS
10
476786.193
20
4396797.559
30
2274.266
40
5.0
1
8
0
POINT
8
SURVEY_POINTS
10
477107.642
20
4396813.083
30
2248.175
0
TEXT
8
SURVEY_POINTS
10
477109.642
20
4396815.083
30
2248.175
40
5.0
1
9
0
POINT
8
SURVEY_POINTS
10
477327.092
20
4396782.280
30
2225.465
0
TEXT
8
SURVEY_POINTS
10
477329.092
20
4396784.280
30
2225.465
40
5.0
1
10
0
POINT
8
SURVEY_POINTS
10
477656.962
20
4396803.193
30
2201.601
0
TEXT
8
SURVEY_POINTS
10
477658.962
20
4396805.193
30
2201.601
40
5.0
1
11
0
POINT
8
SURVEY_POINTS
10
477959.576
20
4396817.694
30
2189.910
0
TEXT
8
SURVEY_POINTS
10
477961.576
20
4396819.694
30
2189.910
40
5.0
1
12
0
POINT
8
SURVEY_POINTS
10
478209.211
20
4396785.251
30
2164.917
0
TEXT
8
SURVEY_POINTS
10
478211.211
20
4396787.251
30
2164.917
40
5.0
1
13
0
POINT
8
SURVEY_POINTS
10
478493.316
20
4396771.969
30
2126.042
0
TEXT
8
SURVEY_POINTS
10
478495.316
20
4396773.969
30
2126.042
40
5.0
1
14
0
POINT
8
SURVEY_POINTS
10
478799.822
20
4396772.693
30
2087.272
0
TEXT
8
SURVEY_POINTS
10
478801.822
20
4396774.693
30
2087.272
40
5.0
1
15
0
POINT
8
SURVEY_POINTS
10
479071.603
20
4396782.844
30
2047.095
0
TEXT
8
SURVEY_POINTS
10
479073.603
20
4396784.844
30
2047.095
40
5.0
1
16
0
POINT
8
SURVEY_POINTS
10
479334.765
20
4396790.856
30
1998.994
0
TEXT
8
SURVEY_POINTS
10
479336.765
20
4396792.856
30
1998.994
40
5.0
1
17
0
POINT
8
SURVEY_POINTS
10
479620.614
20
4396777.855
30
1950.367
0
TEXT
8
SURVEY_POINTS
10
479622.614
20
4396779.855
30
1950.367
40
5.0
1
18
0
POINT
8
SURVEY_POINTS
10
479890.957
20
4396834.312
30
1921.085
0
TEXT
8
SURVEY_POINTS
10
479892.957
20
4396836.312
30
1921.085
40
5.0
1
19
0
POINT
8
SURVEY_POINTS
10
480189.136
20
4396811.569
30
1897.622
0
TEXT
8
SURVEY_POINTS
10
480191.136
20
4396813.569
30
1897.622
40
5.0
1
20
0
POINT
8
SURVEY_POINTS
10
480467.858
20
4396790.250
30
1866.170
0
TEXT
8
SURVEY_POINTS
10
480469.858
20
4396792.250
30
1866.170
40
5.0
1
21
0
POINT
8
SURVEY_POINTS
10
480763.647
20
4396815.330
30
1825.420
0
TEXT
8
SURVEY_POINTS
10
480765.647
20
4396817.330
30
1825.420
40
5.0
1
22
0
POINT
8
SURVEY_POINTS
10
481057.580
20
4396836.859
30
1787.593
0
TEXT
8
SURVEY_POINTS
10
481059.580
20
4396838.859
30
1787.593
40
5.0
1
23
0
POINT
8
SURVEY_POINTS
10
481318.182
20
4396775.502
30
1767.554
0
TEXT
8
SURVEY_POINTS
10
481320.182
20
4396777.502
30
1767.554
40
5.0
1
24
0
POINT
8
SURVEY_POINTS
10
481666.287
20
4396793.238
30
1735.226
0
TEXT
8
SURVEY_POINTS
10
481668.287
20
4396795.238
30
1735.226
40
5.0
1
25
0
POINT
8
SURVEY_POINTS
10
481933.630
20
4396791.555
30
1725.247
0
TEXT
8
SURVEY_POINTS
10
481935.630
20
4396793.555
30
1725.247
40
5.0
1
26
0
POINT
8
SURVEY_POINTS
10
482242.470
20
4396760.755
30
1732.105
0
TEXT
8
SURVEY_POINTS
10
482244.470
20
4396762.755
30
1732.105
40
5.0
1
27
0
POINT
8
SURVEY_POINTS
10
482517.579
20
4396804.345
30
1729.162
0
TEXT
8
SURVEY_POINTS
10
482519.579
20
4396806.345
30
1729.162
40
5.0
1
28
0
POINT
8
SURVEY_POINTS
10
477475.220
20
4394462.397
30
2153.372
0
TEXT
8
SURVEY_POINTS
10
477477.220
20
4394464.397
30
2153.372
40
5.0
1
29
0
POINT
8
SURVEY_POINTS
10
477563.818
20
4394748.816
30
2148.877
0
TEXT
8
SURVEY_POINTS
10
477565.818
20
4394750.816
30
2148.877
40
5.0
1
30
0
POINT
8
SURVEY_POINTS
10
477557.084
20
4394917.829
30
2150.571
0
TEXT
8
SURVEY_POINTS
10
477559.084
20
4394919.829
30
2150.571
40
5.0
1
31
0
POINT
8
SURVEY_POINTS
10
477478.832
20
4395146.131
30
2158.335
0
TEXT
8
SURVEY_POINTS
10
477480.832
20
4395148.131
30
2158.335
40
5.0
1
32
0
POINT
8
SURVEY_POINTS
10
477563.859
20
4395390.884
30
2172.277
0
TEXT
8
SURVEY_POINTS
10
477565.859
20
4395392.884
30
2172.277
40
5.0
1
33
0
POINT
8
SURVEY_POINTS
10
477560.469
20
4395641.659
30
2188.857
0
TEXT
8
SURVEY_POINTS
10
477562.469
20
4395643.659
30
2188.857
40
5.0
1
34
0
POINT
8
SURVEY_POINTS
10
477470.851
20
4395791.496
30
2199.066
0
TEXT
8
SURVEY_POINTS
10
477472.851
20
4395793.496
30
2199.066
40
5.0
1
35
0
POINT
8
SURVEY_POINTS
10
477445.017
20
4396038.459
30
2204.857
0
TEXT
8
SURVEY_POINTS
10
477447.017
20
4396040.459
30
2204.857
40
5.0
1
36
0
POINT
8
SURVEY_POINTS
10
477520.548
20
4396219.123
30
2198.163
0
TEXT
8
SURVEY_POINTS
10
477522.548
20
4396221.123
30
2198.163
40
5.0
1
37
0
POINT
8
SURVEY_POINTS
10
477445.152
20
4396483.044
30
2205.885
0
TEXT
8
SURVEY_POINTS
10
477447.152
20
4396485.044
30
2205.885
40
5.0
1
38
0
POINT
8
SURVEY_POINTS
10
477537.086
20
4396728.079
30
2206.043
0
TEXT
8
SURVEY_POINTS
10
477539.086
20
4396730.079
30
2206.043
40
5.0
1
39
0
POINT
8
SURVEY_POINTS
10
477477.296
20
4396938.886
30
2223.804
0
TEXT
8
SURVEY_POINTS
10
477479.296
20
4396940.886
30
2223.804
40
5.0
1
40
0
POINT
8
SURVEY_POINTS
10
477489.987
20
4397112.270
30
2237.582
0
TEXT
8
SURVEY_POINTS
10
477491.987
20
4397114.270
30
2237.582
40
5.0
1
41
0
POINT
8
SURVEY_POINTS
10
477513.824
20
4397330.313
30
2254.835
0
TEXT
8
SURVEY_POINTS
10
477515.824
20
4397332.313
30
2254.835
40
5.0
1
42
0
POINT
8
SURVEY_POINTS
10
477534.796
20
4397531.476
30
2261.842
0
TEXT
8
SURVEY_POINTS
10
477536.796
20
4397533.476
30
2261.842
40
5.0
1
43
0
POINT
8
SURVEY_POINTS
10
477557.226
20
4397752.794
30
2260.699
0
TEXT
8
SURVEY_POINTS
10
477559.226
20
4397754.794
30
2260.699
40
5.0
1
44
0
POINT
8
SURVEY_POINTS
10
477480.549
20
4397979.554
30
2269.186
0
TEXT
8
SURVEY_POINTS
10
477482.549
20
4397981.554
30
2269.186
40
5.0
1
45
0
POINT
8
SURVEY_POINTS
10
477521.123
20
4398211.730
30
2257.830
0
TEXT
8
SURVEY_POINTS
10
477523.123
20
4398213.730
30
2257.830
40
5.0
1
46
0
POINT
8
SURVEY_POINTS
10
477469.031
20
4398415.662
30
2263.667
0
TEXT
8
SURVEY_POINTS
10
477471.031
20
4398417.662
30
2263.667
40
5.0
1
47
0
POINT
8
SURVEY_POINTS
10
477488.205
20
4398720.022
30
2270.408
0
TEXT
8
SURVEY_POINTS
10
477490.205
20
4398722.022
30
2270.408
40
5.0
1
48
0
POINT
8
SURVEY_POINTS
10
477439.113
20
4398925.103
30
2283.487
0
TEXT
8
SURVEY_POINTS
10
477441.113
20
4398927.103
30
2283.487
40
5.0
1
49
0
POINT
8
SURVEY_POINTS
10
477456.643
20
4399085.923
30
2284.182
0
TEXT
8
SURVEY_POINTS
10
477458.643
20
4399087.923
30
2284.182
40
5.0
1
50
0
POINT
8
SURVEY_POINTS
10
475174.679
20
4394796.263
30
2144.046
0
TEXT
8
SURVEY_POINTS
10
475176.679
20
4394798.263
30
2144.046
40
5.0
1
51
0
POINT
8
SURVEY_POINTS
10
475515.450
20
4395056.135
30
2167.910
0
TEXT
8
SURVEY_POINTS
10
475517.450
20
4395058.135
30
2167.910
40
5.0
1
52
0
POINT
8
SURVEY_POINTS
10
475852.172
20
4395244.059
30
2183.180
0
TEXT
8
SURVEY_POINTS
10
475854.172
20
4395246.059
30
2183.180
40
5.0
1
53
0
POINT
8
SURVEY_POINTS
10
476194.109
20
4395494.870
30
2201.315
0
TEXT
8
SURVEY_POINTS
10
476196.109
20
4395496.870
30
2201.315
40
5.0
1
54
0
POINT
8
SURVEY_POINTS
10
476478.509
20
4395716.465
30
2240.004
0
TEXT
8
SURVEY_POINTS
10
476480.509
20
4395718.465
30
2240.004
40
5.0
1
55
0
POINT
8
SURVEY_POINTS
10
476790.318
20
4395948.531
30
2243.232
0
TEXT
8
SURVEY_POINTS
10
476792.318
20
4395950.531
30
2243.232
40
5.0
1
56
0
POINT
8
SURVEY_POINTS
10
477102.820
20
4396139.659
30
2236.995
0
TEXT
8
SURVEY_POINTS
10
477104.820
20
4396141.659
30
2236.995
40
5.0
1
57
0
POINT
8
SURVEY_POINTS
10
477452.950
20
4396338.667
30
2203.423
0
TEXT
8
SURVEY_POINTS
10
477454.950
20
4396340.667
30
2203.423
40
5.0
1
58
0
POINT
8
SURVEY_POINTS
10
477797.497
20
4396567.918
30
2181.710
0
TEXT
8
SURVEY_POINTS
10
477799.497
20
4396569.918
30
2181.710
40
5.0
1
59
0
POINT
8
SURVEY_POINTS
10
478044.573
20
4396788.418
30
2179.777
0
TEXT
8
SURVEY_POINTS
10
478046.573
20
4396790.418
30
2179.777
40
5.0
1
60
0
POINT
8
SURVEY_POINTS
10
478372.595
20
4397046.078
30
2150.180
0
TEXT
8
SURVEY_POINTS
10
478374.595
20
4397048.078
30
2150.180
40
5.0
1
61
0
POINT
8
SURVEY_POINTS
10
478685.482
20
4397176.796
30
2115.397
0
TEXT
8
SURVEY_POINTS
10
478687.482
20
4397178.796
30
2115.397
40
5.0
1
62
0
POINT
8
SURVEY_POINTS
10
479009.591
20
4397479.029
30
2047.049
0
TEXT
8
SURVEY_POINTS
10
479011.591
20
4397481.029
30
2047.049
40
5.0
1
63
0
POINT
8
SURVEY_POINTS
10
479323.179
20
4397618.198
30
1993.647
0
TEXT
8
SURVEY_POINTS
10
479325.179
20
4397620.198
30
1993.647
40
5.0
1
64
0
POINT
8
SURVEY_POINTS
10
479681.823
20
4397923.471
30
1947.115
0
TEXT
8
SURVEY_POINTS
10
479683.823
20
4397925.471
30
1947.115
40
5.0
1
65
0
POINT
8
SURVEY_POINTS
10
479979.095
20
4398089.579
30
1907.059
0
TEXT
8
SURVEY_POINTS
10
479981.095
20
4398091.579
30
1907.059
40
5.0
1
66
0
POINT
8
SURVEY_POINTS
10
480316.578
20
4398362.902
30
1873.489
0
TEXT
8
SURVEY_POINTS
10
480318.578
20
4398364.902
30
1873.489
40
5.0
1
67
0
POINT
8
SURVEY_POINTS
10
480636.663
20
4398589.845
30
1828.257
0
TEXT
8
SURVEY_POINTS
10
480638.663
20
4398591.845
30
1828.257
40
5.0
1
68
0
POINT
8
SURVEY_POINTS
10
480963.011
20
4398760.588
30
1797.149
0
TEXT
8
SURVEY_POINTS
10
480965.011
20
4398762.588
30
1797.149
40
5.0
1
69
0
POINT
8
SURVEY_POINTS
10
481310.469
20
4399017.927
30
1767.691
0
TEXT
8
SURVEY_POINTS
10
481312.469
20
4399019.927
30
1767.691
40
5.0
1
70
0
POINT
8
SURVEY_POINTS
10
476737.555
20
4397225.551
30
2293.134
0
TEXT
8
SURVEY_POINTS
10
476739.555
20
4397227.551
30
2293.134
40
5.0
1
71
0
POINT
8
SURVEY_POINTS
10
476898.847
20
4397204.863
30
2282.679
0
TEXT
8
SURVEY_POINTS
10
476900.847
20
4397206.863
30
2282.679
40
5.0
1
72
0
POINT
8
SURVEY_POINTS
10
476818.957
20
4397192.347
30
2286.601
0
TEXT
8
SURVEY_POINTS
10
476820.957
20
4397194.347
30
2286.601
40
5.0
1
73
0
POINT
8
SURVEY_POINTS
10
476798.910
20
4397177.149
30
2287.569
0
TEXT
8
SURVEY_POINTS
10
476800.910
20
4397179.149
30
2287.569
40
5.0
1
74
0
POINT
8
SURVEY_POINTS
10
476794.258
20
4397172.173
30
2288.665
0
TEXT
8
SURVEY_POINTS
10
476796.258
20
4397174.173
30
2288.665
40
5.0
1
75
0
POINT
8
SURVEY_POINTS
10
476766.141
20
4397198.849
30
2292.280
0
TEXT
8
SURVEY_POINTS
10
476768.141
20
4397200.849
30
2292.280
40
5.0
1
76
0
POINT
8
SURVEY_POINTS
10
476844.930
20
4397229.432
30
2287.356
0
TEXT
8
SURVEY_POINTS
10
476846.930
20
4397231.432
30
2287.356
40
5.0
1
77
0
POINT
8
SURVEY_POINTS
10
476789.954
20
4397217.345
30
2292.079
0
TEXT
8
SURVEY_POINTS
10
476791.954
20
4397219.345
30
2292.079
40
5.0
1
78
0
POINT
8
SURVEY_POINTS
10
476796.231
20
4397131.661
30
2286.090
0
TEXT
8
SURVEY_POINTS
10
476798.231
20
4397133.661
30
2286.090
40
5.0
1
79
0
POINT
8
SURVEY_POINTS
10
476886.733
20
4397273.489
30
2288.435
0
TEXT
8
SURVEY_POINTS
10
476888.733
20
4397275.489
30
2288.435
40
5.0
1
80
0
POINT
8
SURVEY_POINTS
10
476703.136
20
4397171.468
30
2293.054
0
TEXT
8
SURVEY_POINTS
10
476705.136
20
4397173.468
30
2293.054
40
5.0
1
81
0
POINT
8
SURVEY_POINTS
10
476791.129
20
4397204.189
30
2289.539
0
TEXT
8
SURVEY_POINTS
10
476793.129
20
4397206.189
30
2289.539
40
5.0
1
82
0
POINT
8
SURVEY_POINTS
10
476823.474
20
4397182.702
30
2286.264
0
TEXT
8
SURVEY_POINTS
10
476825.474
20
4397184.702
30
2286.264
40
5.0
1
83
0
POINT
8
SURVEY_POINTS
10
476757.929
20
4397255.177
30
2295.263
0
TEXT
8
SURVEY_POINTS
10
476759.929
20
4397257.177
30
2295.263
40
5.0
1
84
0
POINT
8
SURVEY_POINTS
10
476799.634
20
4397088.538
30
2283.442
0
TEXT
8
SURVEY_POINTS
10
476801.634
20
4397090.538
30
2283.442
40
5.0
1
85
0
POINT
8
SURVEY_POINTS
10
476897.143
20
4397185.368
30
2283.498
0
TEXT
8
SURVEY_POINTS
10
476899.143
20
4397187.368
30
2283.498
40
5.0
1
86
0
POINT
8
SURVEY_POINTS
10
476847.800
20
4397300.531
30
2292.482
0
TEXT
8
SURVEY_POINTS
10
476849.800
20
4397302.531
30
2292.482
40
5.0
1
87
0
POINT
8
SURVEY_POINTS
10
476833.642
20
4397101.203
30
2283.546
0
TEXT
8
SURVEY_POINTS
10
476835.642
20
4397103.203
30
2283.546
40
5.0
1
88
0
POINT
8
SURVEY_POINTS
10
474994.547
20
4395703.220
30
2173.945
0
TEXT
8
SURVEY_POINTS
10
474996.547
20
4395705.220
30
2173.945
40
5.0
1
89
0
POINT
8
SURVEY_POINTS
10
475361.833
20
4395798.366
30
2185.681
0
TEXT
8
SURVEY_POINTS
10
475363.833
20
4395800.366
30
2185.681
40
5.0
1
90
0
POINT
8
SURVEY_POINTS
10
475708.859
20
4395908.042
30
2200.706
0
TEXT
8
SURVEY_POINTS
10
475710.859
20
4395910.042
30
2200.706
40
5.0
1
91
0
POINT
8
SURVEY_POINTS
10
476056.982
20
4395995.465
30
2237.320
0
TEXT
8
SURVEY_POINTS
10
476058.982
20
4395997.465
30
2237.320
40
5.0
1
92
0
POINT
8
SURVEY_POINTS
10
476422.713
20
4396091.747
30
2266.675
0
TEXT
8
SURVEY_POINTS
10
476424.713
20
4396093.747
30
2266.675
40
5.0
1
93
0
POINT
8
SURVEY_POINTS
10
476765.247
20
4396193.258
30
2257.805
0
TEXT
8
SURVEY_POINTS
10
476767.247
20
4396195.258
30
2257.805
40
5.0
1
94
0
POINT
8
SURVEY_POINTS
10
477099.109
20
4396285.495
30
2240.053
0
TEXT
8
SURVEY_POINTS
10
477101.109
20
4396287.495
30
2240.053
40
5.0
1
95
0
POINT
8
SURVEY_POINTS
10
477435.875
20
4396367.643
30
2206.105
0
TEXT
8
SURVEY_POINTS
10
477437.875
20
4396369.643
30
2206.105
40
5.0
1
96
0
POINT
8
SURVEY_POINTS
10
477774.816
20
4396460.113
30
2177.189
0
TEXT
8
SURVEY_POINTS
10
477776.816
20
4396462.113
30
2177.189
40
5.0
1
97
0
POINT
8
SURVEY_POINTS
10
478097.589
20
4396529.724
30
2163.401
0
TEXT
8
SURVEY_POINTS
10
478099.589
20
4396531.724
30
2163.401
40
5.0
1
98
0
POINT
8
SURVEY_POINTS
10
478429.914
20
4396620.926
30
2131.786
0
TEXT
8
SURVEY_POINTS
10
478431.914
20
4396622.926
30
2131.786
40
5.0
1
99
0
POINT
8
SURVEY_POINTS
10
478735.161
20
4396695.657
30
2092.297
0
TEXT
8
SURVEY_POINTS
10
478737.161
20
4396697.657
30
2092.297
40
5.0
1
100
0
POINT
8
SURVEY_POINTS
10
479047.166
20
4396786.608
30
2048.357
0
TEXT
8
SURVEY_POINTS
10
479049.166
20
4396788.608
30
2048.357
40
5.0
1
101
0
POINT
8
SURVEY_POINTS
10
479346.906
20
4396867.658
30
1993.051
0
TEXT
8
SURVEY_POINTS
10
479348.906
20
4396869.658
30
1993.051
40
5.0
1
102
0
POINT
8
SURVEY_POINTS
10
479643.223
20
4396940.904
30
1944.258
0
TEXT
8
SURVEY_POINTS
10
479645.223
20
4396942.904
30
1944.258
40
5.0
1
103
0
POINT
8
SURVEY_POINTS
10
479935.074
20
4397033.296
30
1910.337
0
TEXT
8
SURVEY_POINTS
10
479937.074
20
4397035.296
30
1910.337
40
5.0
1
104
0
POINT
8
SURVEY_POINTS
10
480215.423
20
4397113.692
30
1871.887
0
TEXT
8
SURVEY_POINTS
10
480217.423
20
4397115.692
30
1871.887
40
5.0
1
105
0
POINT
8
SURVEY_POINTS
10
480495.888
20
4397191.926
30
1830.488
0
TEXT
8
SURVEY_POINTS
10
480497.888
20
4397193.926
30
1830.488
40
5.0
1
106
0
POINT
8
SURVEY_POINTS
10
480772.245
20
4397276.841
30
1796.825
0
TEXT
8
SURVEY_POINTS
10
480774.245
20
4397278.841
30
1796.825
40
5.0
1
107
0
POINT
8
SURVEY_POINTS
10
481048.739
20
4397355.329
30
1762.225
0
TEXT
8
SURVEY_POINTS
10
481050.739
20
4397357.329
30
1762.225
40
5.0
1
108
0
POINT
8
SURVEY_POINTS
10
481314.273
20
4397450.276
30
1725.190
0
TEXT
8
SURVEY_POINTS
10
481316.273
20
4397452.276
30
1725.190
40
5.0
1
109
0
POINT
8
SURVEY_POINTS
10
481581.797
20
4397528.640
30
1701.621
0
TEXT
8
SURVEY_POINTS
10
481583.797
20
4397530.640
30
1701.621
40
5.0
1
110
0
POINT
8
SURVEY_POINTS
10
481862.736
20
4397625.601
30
1689.664
0
TEXT
8
SURVEY_POINTS
10
481864.736
20
4397627.601
30
1689.664
40
5.0
1
111
0
POINT
8
SURVEY_POINTS
10
482122.838
20
4397718.545
30
1666.014
0
TEXT
8
SURVEY_POINTS
10
482124.838
20
4397720.545
30
1666.014
40
5.0
1
112
0
POINT
8
SURVEY_POINTS
10
482394.675
20
4397807.459
30
1641.947
0
TEXT
8
SURVEY_POINTS
10
482396.675
20
4397809.459
30
1641.947
40
5.0
1
113
0
POINT
8
SURVEY_POINTS
10
477010.813
20
4396719.633
30
2254.191
0
TEXT
8
SURVEY_POINTS
10
477012.813
20
4396721.633
30
2254.191
40
5.0
1
114
0
POINT
8
SURVEY_POINTS
10
477330.552
20
4396782.371
30
2222.291
0
TEXT
8
SURVEY_POINTS
10
477332.552
20
4396784.371
30
2222.291
40
5.0
1
115
0
POINT
8
SURVEY_POINTS
10
477635.333
20
4396870.368
30
2208.749
0
TEXT
8
SURVEY_POINTS
10
477637.333
20
4396872.368
30
2208.749
40
5.0
1
116
0
POINT
8
SURVEY_POINTS
10
477963.225
20
4396970.953
30
2193.544
0
TEXT
8
SURVEY_POINTS
10
477965.225
20
4396972.953
30
2193.544
40
5.0
1
117
0
POINT
8
SURVEY_POINTS
10
478299.215
20
4397090.487
30
2160.769
0
TEXT
8
SURVEY_POINTS
10
478301.215
20
4397092.487
30
2160.769
40
5.0
1
118
0
POINT
8
SURVEY_POINTS
10
478618.903
20
4397197.893
30
2120.975
0
TEXT
8
SURVEY_POINTS
10
478620.903
20
4397199.893
30
2120.975
40
5.0
1
119
0
POINT
8
SURVEY_POINTS
10
478918.346
20
4397275.867
30
2069.314
0
TEXT
8
SURVEY_POINTS
10
478920.346
20
4397277.867
30
2069.314
40
5.0
1
120
0
POINT
8
SURVEY_POINTS
10
479242.417
20
4397362.960
30
1999.198
0
TEXT
8
SURVEY_POINTS
10
479244.417
20
4397364.960
30
1999.198
40
5.0
1
121
0
POINT
8
SURVEY_POINTS
10
479563.606
20
4397470.658
30
1948.096
0
TEXT
8
SURVEY_POINTS
10
479565.606
20
4397472.658
30
1948.096
40
5.0
1
122
0
POINT
8
SURVEY_POINTS
10
479887.933
20
4397554.582
30
1902.446
0
TEXT
8
SURVEY_POINTS
10
479889.933
20
4397556.582
30
1902.446
40
5.0
1
123
0
POINT
8
SURVEY_POINTS
10
480206.224
20
4397646.204
30
1856.605
0
TEXT
8
SURVEY_POINTS
10
480208.224
20
4397648.204
30
1856.605
40
5.0
1
124
0
POINT
8
SURVEY_POINTS
10
480532.942
20
4397738.926
30
1822.939
0
TEXT
8
SURVEY_POINTS
10
480534.942
20
4397740.926
30
1822.939
40
5.0
1
125
0
POINT
8
SURVEY_POINTS
10
480867.130
20
4397835.256
30
1776.507
0
TEXT
8
SURVEY_POINTS
10
480869.130
20
4397837.256
30
1776.507
40
5.0
1
126
0
POINT
8
SURVEY_POINTS
10
481164.157
20
4397975.875
30
1733.930
0
TEXT
8
SURVEY_POINTS
10
481166.157
20
4397977.875
30
1733.930
40
5.0
1
127
0
POINT
8
SURVEY_POINTS
10
481485.177
20
4398044.019
30
1697.039
0
TEXT
8
SURVEY_POINTS
10
481487.177
20
4398046.019
30
1697.039
40
5.0
1
128
0
POINT
8
SURVEY_POINTS
10
481583.618
20
4399257.838
30
1756.075
0
TEXT
8
SURVEY_POINTS
10
481585.618
20
4399259.838
30
1756.075
40
5.0
1
129
0
POINT
8
SURVEY_POINTS
10
480597.463
20
4398459.314
30
1830.007
0
TEXT
8
SURVEY_POINTS
10
480599.463
20
4398461.314
30
1830.007
40
5.0
1
130
0
POINT
8
SURVEY_POINTS
10
476321.200
20
4396566.347
30
2276.146
0
TEXT
8
SURVEY_POINTS
10
476323.200
20
4396568.347
30
2276.146
40
5.0
1
131
0
POINT
8
SURVEY_POINTS
10
480051.651
20
4398450.340
30
1914.863
0
TEXT
8
SURVEY_POINTS
10
480053.651
20
4398452.340
30
1914.863
40
5.0
1
132
0
POINT
8
SURVEY_POINTS
10
482132.195
20
4399399.754
30
1707.163
0
TEXT
8
SURVEY_POINTS
10
482134.195
20
4399401.754
30
1707.163
40
5.0
1
133
0
POINT
8
SURVEY_POINTS
10
479412.710
20
4397747.599
30
1983.509
0
TEXT
8
SURVEY_POINTS
10
479414.710
20
4397749.599
30
1983.509
40
5.0
1
134
0
POINT
8
SURVEY_POINTS
10
475626.306
20
4396700.832
30
2253.922
0
TEXT
8
SURVEY_POINTS
10
475628.306
20
4396702.832
30
2253.922
40
5.0
1
135
0
POINT
8
SURVEY_POINTS
10
477217.027
20
4396664.436
30
2231.803
0
TEXT
8
SURVEY_POINTS
10
477219.027
20
4396666.436
30
2231.803
40
5.0
1
136
0
POINT
8
SURVEY_POINTS
10
476809.530
20
4399246.261
30
2299.141
0
TEXT
8
SURVEY_POINTS
10
476811.530
20
4399248.261
30
2299.141
40
5.0
1
137
0
POINT
8
SURVEY_POINTS
10
478403.547
20
4398194.926
30
2167.275
0
TEXT
8
SURVEY_POINTS
10
478405.547
20
4398196.926
30
2167.275
40
5.0
1
138
0
POINT
8
SURVEY_POINTS
10
476361.044
20
4394656.816
30
2187.967
0
TEXT
8
SURVEY_POINTS
10
476363.044
20
4394658.816
30
2187.967
40
5.0
1
139
0
POINT
8
SURVEY_POINTS
10
480760.136
20
4399237.981
30
1873.304
0
TEXT
8
SURVEY_POINTS
10
480762.136
20
4399239.981
30
1873.304
40
5.0
1
140
0
POINT
8
SURVEY_POINTS
10
479657.086
20
4395540.434
30
1976.616
0
TEXT
8
SURVEY_POINTS
10
479659.086
20
4395542.434
30
1976.616
40
5.0
1
141
0
POINT
8
SURVEY_POINTS
10
479180.948
20
4395433.416
30
2035.946
0
TEXT
8
SURVEY_POINTS
10
479182.948
20
4395435.416
30
2035.946
40
5.0
1
142
0
POINT
8
SURVEY_POINTS
10
475892.650
20
4397457.687
30
2271.983
0
TEXT
8
SURVEY_POINTS
10
475894.650
20
4397459.687
30
2271.983
40
5.0
1
143
0
POINT
8
SURVEY_POINTS
10
480955.673
20
4395151.582
30
1849.809
0
TEXT
8
SURVEY_POINTS
10
480957.673
20
4395153.582
30
1849.809
40
5.0
1
144
0
POINT
8
SURVEY_POINTS
10
474713.131
20
4395922.178
30
2178.378
0
TEXT
8
SURVEY_POINTS
10
474715.131
20
4395924.178
30
2178.378
40
5.0
1
145
0
POINT
8
SURVEY_POINTS
10
477792.232
20
4398018.076
30
2226.207
0
TEXT
8
SURVEY_POINTS
10
477794.232
20
4398020.076
30
2226.207
40
5.0
1
146
0
POINT
8
SURVEY_POINTS
10
481393.745
20
4395562.817
30
1823.073
0
TEXT
8
SURVEY_POINTS
10
481395.745
20
4395564.817
30
1823.073
40
5.0
1
147
0
POINT
8
SURVEY_POINTS
10
481557.434
20
4397422.140
30
1703.803
0
TEXT
8
SURVEY_POINTS
10
481559.434
20
4397424.140
30
1703.803
40
5.0
1
148
0
POINT
8
SURVEY_POINTS
10
480995.873
20
4396105.460
30
1847.044
0
TEXT
8
SURVEY_POINTS
10
480997.873
20
4396107.460
30
1847.044
40
5.0
1
149
0
POINT
8
SURVEY_POINTS
10
475072.341
20
4397667.225
30
2253.538
0
TEXT
8
SURVEY_POINTS
10
475074.341
20
4397669.225
30
2253.538
40
5.0
1
150
0
POINT
8
SURVEY_POINTS
10
481325.347
20
4394848.802
30
1833.251
0
TEXT
8
SURVEY_POINTS
10
481327.347
20
4394850.802
30
1833.251
40
5.0
1
151
0
POINT
8
SURVEY_POINTS
10
481900.073
20
4396690.645
30
1733.280
0
TEXT
8
SURVEY_POINTS
10
481902.073
20
4396692.645
30
1733.280
40
5.0
1
152
0
POINT
8
SURVEY_POINTS
10
480590.501
20
4399320.463
30
1900.761
0
TEXT
8
SURVEY_POINTS
10
480592.501
20
4399322.463
30
1900.761
40
5.0
1
153
0
POINT
8
SURVEY_POINTS
10
480929.524
20
4396717.344
30
1814.065
0
TEXT
8
SURVEY_POINTS
10
480931.524
20
4396719.344
30
1814.065
40
5.0
1
154
0
POINT
8
SURVEY_POINTS
10
476727.683
20
4398728.908
30
2313.764
0
TEXT
8
SURVEY_POINTS
10
476729.683
20
4398730.908
30
2313.764
40
5.0
1
155
0
POINT
8
SURVEY_POINTS
10
476815.104
20
4396644.170
30
2270.882
0
TEXT
8
SURVEY_POINTS
10
476817.104
20
4396646.170
30
2270.882
40
5.0
1
156
0
POINT
8
SURVEY_POINTS
10
479565.753
20
4396270.744
30
1967.594
0
TEXT
8
SURVEY_POINTS
10
479567.753
20
4396272.744
30
1967.594
40
5.0
1
157
0
POINT
8
SURVEY_POINTS
10
476009.271
20
4395403.023
30
2191.627
0
TEXT
8
SURVEY_POINTS
10
476011.271
20
4395405.023
30
2191.627
40
5.0
1
158
0
POINT
8
SURVEY_POINTS
10
476821.165
20
4397400.006
30
2300.709
0
TEXT
8
SURVEY_POINTS
10
476823.165
20
4397402.006
30
2300.709
40
5.0
1
159
0
POINT
8
SURVEY_POINTS
10
474584.254
20
4399229.925
30
2200.346
0
TEXT
8
SURVEY_POINTS
10
474586.254
20
4399231.925
30
2200.346
40
5.0
1
160
0
POINT
8
SURVEY_POINTS
10
477873.353
20
4397186.916
30
2213.780
0
TEXT
8
SURVEY_POINTS
10
477875.353
20
4397188.916
30
2213.780
40
5.0
1
161
0
POINT
8
SURVEY_POINTS
10
479860.994
20
4396852.271
30
1924.669
0
TEXT
8
SURVEY_POINTS
10
479862.994
20
4396854.271
30
1924.669
40
5.0
1
162
0
POINT
8
SURVEY_POINTS
10
476942.155
20
4396402.886
30
2253.826
0
TEXT
8
SURVEY_POINTS
10
476944.155
20
4396404.886
30
2253.826
40
5.0
1
163
0
POINT
8
SURVEY_POINTS
10
479326.911
20
4396760.955
30
1999.921
0
TEXT
8
SURVEY_POINTS
10
479328.911
20
4396762.955
30
1999.921
40
5.0
1
164
0
POINT
8
SURVEY_POINTS
10
482772.041
20
4397162.020
30
1693.091
0
TEXT
8
SURVEY_POINTS
10
482774.041
20
4397164.020
30
1693.091
40
5.0
1
165
0
POINT
8
SURVEY_POINTS
10
476748.606
20
4395607.299
30
2221.522
0
TEXT
8
SURVEY_POINTS
10
476750.606
20
4395609.299
30
2221.522
40
5.0
1
166
0
POINT
8
SURVEY_POINTS
10
477119.048
20
4398162.982
30
2308.489
0
TEXT
8
SURVEY_POINTS
10
477121.048
20
4398164.982
30
2308.489
40
5.0
1
167
0
POINT
8
SURVEY_POINTS
10
476036.744
20
4395425.200
30
2191.292
0
TEXT
8
SURVEY_POINTS
10
476038.744
20
4395427.200
30
2191.292
40
5.0
1
168
0
POINT
8
SURVEY_POINTS
10
477217.917
20
4394815.612
30
2167.303
0
TEXT
8
SURVEY_POINTS
10
477219.917
20
4394817.612
30
2167.303
40
5.0
1
169
0
POINT
8
SURVEY_POINTS
10
477266.526
20
4395067.775
30
2166.775
0
TEXT
8
SURVEY_POINTS
10
477268.526
20
4395069.775
30
2166.775
40
5.0
1
170
0
POINT
8
SURVEY_POINTS
10
477102.830
20
4395362.048
30
2187.441
0
TEXT
8
SURVEY_POINTS
10
477104.830
20
4395364.048
30
2187.441
40
5.0
1
171
0
POINT
8
SURVEY_POINTS
10
477210.672
20
4395651.845
30
2200.331
0
TEXT
8
SURVEY_POINTS
10
477212.672
20
4395653.845
30
2200.331
40
5.0
1
172
0
POINT
8
SURVEY_POINTS
10
477120.518
20
4395890.736
30
2221.606
0
TEXT
8
SURVEY_POINTS
10
477122.518
20
4395892.736
30
2221.606
40
5.0
1
173
0
POINT
8
SURVEY_POINTS
10
477188.094
20
4396181.062
30
2229.724
0
TEXT
8
SURVEY_POINTS
10
477190.094
20
4396183.062
30
2229.724
40
5.0
1
174
0
POINT
8
SURVEY_POINTS
10
477122.817
20
4396453.921
30
2241.007
0
TEXT
8
SURVEY_POINTS
10
477124.817
20
4396455.921
30
2241.007
40
5.0
1
175
0
POINT
8
SURVEY_POINTS
10
477225.889
20
4396733.217
30
2232.231
0
TEXT
8
SURVEY_POINTS
10
477227.889
20
4396735.217
30
2232.231
40
5.0
1
176
0
POINT
8
SURVEY_POINTS
10
477289.825
20
4397015.111
30
2241.468
0
TEXT
8
SURVEY_POINTS
10
477291.825
20
4397017.111
30
2241.468
40
5.0
1
177
0
POINT
8
SURVEY_POINTS
10
477252.889
20
4397326.379
30
2272.157
0
TEXT
8
SURVEY_POINTS
10
477254.889
20
4397328.379
30
2272.157
40
5.0
1
178
0
POINT
8
SURVEY_POINTS
10
477255.139
20
4397592.823
30
2291.736
0
TEXT
8
SURVEY_POINTS
10
477257.139
20
4397594.823
30
2291.736
40
5.0
1
179
0
POINT
8
SURVEY_POINTS
10
477272.033
20
4397909.402
30
2294.665
0
TEXT
8
SURVEY_POINTS
10
477274.033
20
4397911.402
30
2294.665
40
5.0
1
180
0
POINT
8
SURVEY_POINTS
10
477112.046
20
4398187.607
30
2304.560
0
TEXT
8
SURVEY_POINTS
10
477114.046
20
4398189.607
30
2304.560
40
5.0
1
181
0
POINT
8
SURVEY_POINTS
10
477225.103
20
4398425.879
30
2286.210
0
TEXT
8
SURVEY_POINTS
10
477227.103
20
4398427.879
30
2286.210
40
5.0
1
182
0
POINT
8
SURVEY_POINTS
10
477134.763
20
4398694.504
30
2291.025
0
TEXT
8
SURVEY_POINTS
10
477136.763
20
4398696.504
30
2291.025
40
5.0
1
183
0
POINT
8
SURVEY_POINTS
10
477237.874
20
4398998.195
30
2291.103
0
TEXT
8
SURVEY_POINTS
10
477239.874
20
4399000.195
30
2291.103
40
5.0
1
184
0
POINT
8
SURVEY_POINTS
10
477241.391
20
4399292.179
30
2294.749
0
TEXT
8
SURVEY_POINTS
10
477243.391
20
4399294.179
30
2294.749
40
5.0
1
185
0
POINT
8
SURVEY_POINTS
10
477284.782
20
4399577.270
30
2283.042
0
TEXT
8
SURVEY_POINTS
10
477286.782
20
4399579.270
30
2283.042
40
5.0
1
186
0
POINT
8
SURVEY_POINTS
10
474499.251
20
4394400.446
30
2094.188
0
TEXT
8
SURVEY_POINTS
10
474501.251
20
4394402.446
30
2094.188
40
5.0
1
187
0
POINT
8
SURVEY_POINTS
10
482704.084
20
4394403.266
30
1773.579
0
TEXT
8
SURVEY_POINTS
10
482706.084
20
4394405.266
30
1773.579
40
5.0
1
188
0
POINT
8
SURVEY_POINTS
10
482696.659
20
4399598.076
30
1686.862
0
TEXT
8
SURVEY_POINTS
10
482698.659
20
4399600.076
30
1686.862
40
5.0
1
189
0
POINT
8
SURVEY_POINTS
10
474500.692
20
4399597.886
30
2186.589
0
TEXT
8
SURVEY_POINTS
10
474502.692
20
4399599.886
30
2186.589
40
5.0
1
190
0
POINT
8
SURVEY_POINTS
10
478501.887
20
4394401.997
30
2096.571
0
TEXT
8
SURVEY_POINTS
10
478503.887
20
4394403.997
30
2096.571
40
5.0
1
191
0
POINT
8
SURVEY_POINTS
10
478500.005
20
4399599.938
30
2179.634
0
TEXT
8
SURVEY_POINTS
10
478502.005
20
4399601.938
30
2179.634
40
5.0
1
192
0
POINT
8
SURVEY_POINTS
10
474495.399
20
4396999.320
30
2226.727
0
TEXT
8
SURVEY_POINTS
10
474497.399
20
4397001.320
30
2226.727
40
5.0
1
193
0
POINT
8
SURVEY_POINTS
10
482697.504
20
4396995.913
30
1711.986
0
TEXT
8
SURVEY_POINTS
10
482699.504
20
4396997.913
30
1711.986
40
5.0
1
194
0
POINT
8
SURVEY_POINTS
10
481236.881
20
4397260.956
30
1744.152
0
TEXT
8
SURVEY_POINTS
10
481238.881
20
4397262.956
30
1744.152
40
5.0
1
195
0
POINT
8
SURVEY_POINTS
10
479237.102
20
4398162.923
30
2045.923
0
TEXT
8
SURVEY_POINTS
10
479239.102
20
4398164.923
30
2045.923
40
5.0
1
196
0
POINT
8
SURVEY_POINTS
10
479816.623
20
4398897.149
30
1963.999
0
TEXT
8
SURVEY_POINTS
10
479818.623
20
4398899.149
30
1963.999
40
5.0
1
197
0
POINT
8
SURVEY_POINTS
10
478156.314
20
4398408.376
30
2209.953
0
TEXT
8
SURVEY_POINTS
10
478158.314
20
4398410.376
30
2209.953
40
5.0
1
198
0
POINT
8
SURVEY_POINTS
10
477479.300
20
4396099.880
30
2204.311
0
TEXT
8
SURVEY_POINTS
10
477481.300
20
4396101.880
30
2204.311
40
5.0
1
199
0
POINT
8
SURVEY_POINTS
10
477339.488
20
4397829.634
30
2287.377
0
TEXT
8
SURVEY_POINTS
10
477341.488
20
4397831.634
30
2287.377
40
5.0
1
200
0
POINT
8
SURVEY_POINTS
10
481064.458
20
4397140.464
30
1768.968
0
TEXT
8
SURVEY_POINTS
10
481066.458
20
4397142.464
30
1768.968
40
5.0
1
201
0
POINT
8
SURVEY_POINTS
10
476743.471
20
4395056.424
30
2191.519
0
TEXT
8
SURVEY_POINTS
10
476745.471
20
4395058.424
30
2191.519
40
5.0
1
202
0
POINT
8
SURVEY_POINTS
10
481151.939
20
4394505.525
30
1847.598
0
TEXT
8
SURVEY_POINTS
10
481153.939
20
4394507.525
30
1847.598
40
5.0
1
203
0
POINT
8
SURVEY_POINTS
10
477982.006
20
4395400.396
30
2154.881
0
TEXT
8
SURVEY_POINTS
10
477984.006
20
4395402.396
30
2154.881
40
5.0
1
204
0
ENDSEC
0
EOF